<svg xmlns="http://www.w3.org/2000/svg" width="46.227" height="46.227" viewBox="0 0 46.227 46.227">
  <defs>
    <style>
      .cls-1 {
        fill: #8a8a8a;
      }
    </style>
  </defs>
  <path id="Icon_ionic-ios-send" data-name="Icon ionic-ios-send" class="cls-1" d="M36.161,4.576,4.908,18.2a.716.716,0,0,0,.026,1.3l8.454,4.776a1.363,1.363,0,0,0,1.558-.153L31.615,9.752c.111-.094.375-.272.477-.17s-.06.366-.153.477L17.517,26.3a1.359,1.359,0,0,0-.136,1.626l5.525,8.863a.719.719,0,0,0,1.294-.017L37.123,5.521A.717.717,0,0,0,36.161,4.576Z" transform="translate(23.112 -6.368) rotate(45)"/>
</svg>
